<svg xmlns="http://www.w3.org/2000/svg" width="169" height="40" viewBox="0 0 169 40">
    <g fill="none" fill-rule="evenodd">
        <g fill="#000">
            <path d="M49.897 24.664h3.332c3.678 0 5.135-2.684 5.066-5.32-.07-2.522-1.55-5.044-5.066-5.044h-3.332v10.364zm11.428-5.298c.07 4.095-2.429 8.236-8.096 8.236h-6.362V11.408h6.362c5.551 0 8.026 3.956 8.096 7.958zM63.128 27.602h2.822V16.15h-2.822V27.6zm3.077-14.62c0 2.197-3.331 2.197-3.331 0 0-2.198 3.33-2.198 3.33 0zM70.715 21.61c0 1.99 1.342 3.17 2.984 3.17 1.62 0 2.961-1.204 2.961-3.17s-1.342-3.215-2.96-3.215c-1.643 0-2.985 1.226-2.985 3.215zm6.731-6.57l2.082 1.574-1.272 1.619c.88.995 1.203 2.128 1.203 3.377 0 1.411-.532 3.4-2.406 4.256 1.897.949 2.36 2.314 2.36 3.771 0 3.146-2.406 5.09-5.714 5.09-3.308 0-5.783-2.013-5.783-5.09h2.799c0 1.48 1.365 2.452 2.984 2.452 1.62 0 2.891-.879 2.891-2.452s-1.48-2.29-2.89-2.29c-3.563 0-5.784-2.175-5.784-5.737 0-3.562 2.59-5.783 5.783-5.783.902 0 1.828.116 2.614.648l1.133-1.435zM81.262 27.602h2.823V16.15h-2.823V27.6zm3.077-14.62c0 2.197-3.331 2.197-3.331 0 0-2.198 3.331-2.198 3.331 0zM90.608 12.982v3.238h3.146v2.43h-3.17v4.926c0 1.088.602 1.62 1.48 1.62.44 0 .95-.14 1.366-.348l.786 2.406c-.81.324-1.48.463-2.336.486-2.475.093-4.094-1.318-4.094-4.164V18.65h-2.129V16.22h2.129v-2.938l2.822-.3zM98.055 21.888c0 2.174 1.504 3.47 3.378 3.47 4.441 0 4.441-6.917 0-6.917-1.874 0-3.378 1.272-3.378 3.447zm6.848-5.691h2.706v11.404h-2.66l-.139-1.665c-.648 1.342-2.429 1.99-3.701 2.013-3.378.022-5.876-2.06-5.876-6.061 0-3.933 2.614-5.992 5.946-5.968 1.526 0 2.983.717 3.631 1.85l.093-1.573zM109.99 27.602h2.8v-16.17h-2.8zM123.43 11.408v15.014h9.114v1.18h-10.363V11.408zM143.509 16.174l-6.964 16.193h-1.202l2.105-4.904-4.58-11.29h1.225l2.66 6.756 1.343 3.308 1.318-3.332 2.868-6.731zM146.816 16.174v2.036c.879-1.573 2.475-2.221 4.071-2.244 3.054 0 5.159 1.873 5.159 5.043V27.6h-1.134v-6.57c0-2.59-1.596-3.978-4.071-3.955-2.36.023-4.002 1.805-4.002 4.164V27.6h-1.134V16.174h1.11zM168.374 26.005a5.845 5.845 0 0 1-4.163 1.712c-3.216 0-5.876-2.22-5.876-5.83 0-3.608 2.568-5.829 5.876-5.829 1.503 0 3.007.578 4.163 1.712l-.74.717c-.925-.925-2.198-1.365-3.423-1.365-2.591 0-4.766 1.689-4.766 4.766 0 3.076 2.175 4.765 4.766 4.765a4.838 4.838 0 0 0 3.4-1.411l.763.763z"/>
        </g>
        <circle cx="20" cy="20" r="20" fill="#FFF"/>
        <path fill="#DA3538" d="M18.669 30.138s-.846-.856-1.874-2.366c-.12.084-.256.148-.402.188-.24 1.018-.374 1.613-.418 1.622a10.08 10.08 0 0 0 2.748.735l-.054-.179z"/>
        <path fill="#1B80C3" d="M14.778 26.954c-1.984-.22-3.116-.767-3.122-.77a10.441 10.441 0 0 0 3.506 3.013c0-.002.12-.512.332-1.316a1.302 1.302 0 0 1-.716-.927"/>
        <path fill="#DA3538" d="M30.373 19.13c-.02.036-.349.656-1 1.527a1.298 1.298 0 0 1-.003 1.196c.387.665.596 1.16.596 1.16a10.452 10.452 0 0 0 .407-3.884M28.744 22.443a1.286 1.286 0 0 1-.947.039c-1.452 1.457-3.533 3.012-6.284 3.81a18.558 18.558 0 0 1-4.203.726.662.662 0 0 1-.006.023c.661.93 1.522 1.987 2.71 3.355 4.241 0 7.894-2.533 9.51-6.193-.006-.017-.451-1.162-.78-1.76"/>
        <path fill="#F4C714" d="M27.184 20.47c-1.3-1.578-3.101-3.077-5.382-3.97a1.291 1.291 0 0 1-1.25.484c-.224.36-.448.738-.673 1.145-1.457 2.637-2.407 5.395-3.022 7.555.19.152.337.356.418.59 1.511-.042 3.14-.294 4.706-.929 2.282-.925 3.918-2.186 5.123-3.433a1.298 1.298 0 0 1 .08-1.441"/>
        <path fill="#00AE62" d="M26.082 11.558c-.04.013-1.82.607-4.048 3.424a1.3 1.3 0 0 1 .173.649c0 .023-.003.045-.004.067.494.197.993.425 1.498.689 1.891.986 3.298 2.325 4.293 3.541a1.294 1.294 0 0 1 .802.029c.615-.862 1.046-1.612 1.38-2.098-.528-2.582-1.992-4.776-4.094-6.3"/>
        <path fill="#1B80C3" d="M13.122 13.902c.093-1.241.292-1.936.327-1.964a10.484 10.484 0 0 0-2.64 3.223c.458-.063.91-.123 1.357-.179a1.3 1.3 0 0 1 .956-1.08M13.698 21a24.693 24.693 0 0 1-.722-4.582 1.3 1.3 0 0 1-.848-.735c-.8.128-1.375.275-1.739.378-.489 1.21-.77 2.516-.77 3.892 0 1.934.504 3.749 1.417 5.302.07.025 1.668.573 3.883.817.124-.224.312-.407.54-.525A20.575 20.575 0 0 1 13.699 21"/>
        <path fill="#F4C714" d="M19.483 15.73l-.129-.023a24.916 24.916 0 0 0-4.772-.267c-.093.43-.398.78-.8.936.054 1.203.226 2.52.611 3.844.659 2.261 1.072 3.665 1.825 5.083.466-1.556 1.057-3.336 1.711-4.858.56-1.3 1.201-2.58 1.955-3.8a1.301 1.301 0 0 1-.401-.915"/>
        <path fill="#00AE62" d="M20.01 9.596c-2.083 0-4.022.617-5.648 1.677-.002.01-.271 1.073-.394 2.68.335.144.596.424.717.77 1.722-.111 3.408-.065 5.127.305a1.293 1.293 0 0 1 1.644-.52 17.248 17.248 0 0 1 3.797-3.486 10.308 10.308 0 0 0-5.243-1.426"/>
        <path fill="#F4C714" d="M19.99 37.573a17.49 17.49 0 0 1-11.573-4.356l3.23-3.23a12.907 12.907 0 0 1-4.584-9.878c0-2.326.614-4.507 1.687-6.392l-1.79-1.79a15.32 15.32 0 0 0-2.351 8.182c0 3.802 1.379 7.281 3.663 9.967l-3.223 3.209C8.711 37.405 14.047 40 19.991 40c4.266 0 8.22-1.338 11.465-3.616l-1.745-1.746a17.478 17.478 0 0 1-9.72 2.935"/>
        <path fill="#DA3538" d="M36.371 8.5l-1.745 1.746a17.494 17.494 0 0 1 2.91 9.687c0 4.415-1.629 8.449-4.316 11.535l-3.239-3.243a12.899 12.899 0 0 1-10.01 4.75c-2.334 0-4.523-.619-6.412-1.7l-1.789 1.79a15.303 15.303 0 0 0 8.2 2.366c3.863 0 7.392-1.426 10.093-3.778l3.262 3.26C37.431 31.25 40 25.85 40 19.913c0-4.252-1.367-8.173-3.629-11.413"/>
        <path fill="#1B80C3" d="M28.06 7.006a15.302 15.302 0 0 0-8.07-2.287c-3.785 0-7.25 1.37-9.93 3.638L6.737 5.03A19.954 19.954 0 0 0 0 20c0 4.259 1.331 8.206 3.599 11.45l1.746-1.747A17.496 17.496 0 0 1 2.425 20 17.51 17.51 0 0 1 6.753 8.45l3.349 3.33a12.896 12.896 0 0 1 9.89-4.605c2.278 0 4.417.59 6.276 1.625l1.793-1.794z"/>
        <path fill="#00AE62" d="M31.667 10.013l3.302-3.278C30.765 1.975 25.142 0 20.057 0A19.89 19.89 0 0 0 8.711 3.533l1.748 1.749a17.473 17.473 0 0 1 9.598-2.855c4.436 0 8.486 1.645 11.578 4.358L30.029 8.39h-.001l-1.742 1.742a12.909 12.909 0 0 1 4.699 9.975c0 2.256-.578 4.376-1.592 6.222l1.796 1.797a15.323 15.323 0 0 0 2.25-8.019c0-3.862-1.422-7.393-3.772-10.095"/>
    </g>
</svg>
